# WaveFront *.obj file (generated by Autodesk ATF)

mtllib Diamond_Ruby.mtl

g Solid1

v -4.610000 0.000000 0.000000
v -3.992377 0.000000 -2.305000
v -3.992377 0.000000 2.305000
v -2.610000 3.200000 0.000000
v -2.305000 0.000000 -3.992377
v -2.305000 0.000000 3.992377
v -1.305000 3.200000 -2.260326
v -1.305000 3.200000 2.260326
v 0.000000 0.000000 -4.610000
v 0.000000 0.000000 4.610000
v 0.000000 4.720000 0.000000
v 1.305000 3.200000 -2.260326
v 1.305000 3.200000 2.260326
v 2.305000 0.000000 -3.992377
v 2.305000 0.000000 3.992377
v 2.610000 3.200000 0.000000
v 3.992377 0.000000 -2.305000
v 3.992377 0.000000 2.305000
v 4.610000 0.000000 0.000000
vt -0.261000 0.000000 0.000000
vt -0.000000 0.000000 0.000000
vt -0.130500 0.272387 0.000000
vt -0.261000 0.000000 0.000000
vt -0.000000 0.000000 0.000000
vt -0.130500 0.272387 0.000000
vt -0.261000 0.000000 0.000000
vt -0.000000 0.000000 0.000000
vt -0.130500 0.272387 0.000000
vt -0.261000 0.000000 0.000000
vt -0.000000 0.000000 0.000000
vt -0.130500 0.272387 0.000000
vt -0.261000 0.000000 0.000000
vt -0.000000 0.000000 0.000000
vt -0.130500 0.272387 0.000000
vt -0.261000 0.000000 0.000000
vt -0.000000 0.000000 0.000000
vt -0.130500 0.272387 0.000000
vt 0.230500 0.399238 0.000000
vt -0.000000 0.461000 0.000000
vt -0.230500 0.399238 0.000000
vt -0.399238 0.230500 0.000000
vt -0.461000 0.000000 0.000000
vt -0.399238 -0.230500 0.000000
vt -0.230500 -0.399238 0.000000
vt -0.000000 -0.461000 0.000000
vt 0.230500 -0.399238 0.000000
vt 0.399238 -0.230500 0.000000
vt 0.461000 0.000000 0.000000
vt 0.399238 0.230500 0.000000
vt -0.130500 0.397001 0.000000
vt 0.000000 0.000000 0.000000
vt 0.130500 0.397001 0.000000
vt -0.238631 0.000000 0.000000
vt -0.000000 0.000000 0.000000
vt -0.186867 0.373792 0.000000
vt -0.238631 0.000000 0.000000
vt -0.000000 0.000000 0.000000
vt -0.051764 0.373792 0.000000
vt -0.130500 0.397001 0.000000
vt -0.000000 0.000000 0.000000
vt 0.130500 0.397001 0.000000
vt -0.238631 0.000000 0.000000
vt -0.000000 0.000000 0.000000
vt -0.186867 0.373792 0.000000
vt -0.238631 0.000000 0.000000
vt -0.000000 0.000000 0.000000
vt -0.051764 0.373792 0.000000
vt -0.130500 0.397001 0.000000
vt -0.000000 0.000000 0.000000
vt 0.130500 0.397001 0.000000
vt -0.238631 0.000000 0.000000
vt -0.000000 0.000000 0.000000
vt -0.186867 0.373792 0.000000
vt -0.238631 0.000000 0.000000
vt -0.000000 0.000000 0.000000
vt -0.051764 0.373792 0.000000
vt -0.130500 0.397001 0.000000
vt 0.000000 0.000000 0.000000
vt 0.130500 0.397001 0.000000
vt -0.238631 0.000000 0.000000
vt -0.000000 0.000000 0.000000
vt -0.186867 0.373792 0.000000
vt -0.238631 0.000000 0.000000
vt -0.000000 0.000000 0.000000
vt -0.051764 0.373792 0.000000
vt -0.130500 0.397001 0.000000
vt -0.000000 0.000000 0.000000
vt 0.130500 0.397001 0.000000
vt -0.238631 0.000000 0.000000
vt -0.000000 0.000000 0.000000
vt -0.186867 0.373792 0.000000
vt -0.238631 0.000000 0.000000
vt -0.000000 0.000000 0.000000
vt -0.051764 0.373792 0.000000
vt -0.130500 0.397001 0.000000
vt 0.000000 0.000000 0.000000
vt 0.130500 0.397001 0.000000
vt -0.238631 0.000000 0.000000
vt -0.000000 0.000000 0.000000
vt -0.186867 0.373792 0.000000
vt -0.238631 0.000000 0.000000
vt -0.000000 0.000000 0.000000
vt -0.051764 0.373792 0.000000
vn -0.048327 0.082982 -0.027901
vn -0.048327 0.082982 -0.027901
vn -0.048327 0.082982 -0.027901
vn 0.000000 0.082982 -0.055803
vn 0.000000 0.082982 -0.055803
vn 0.000000 0.082982 -0.055803
vn 0.048327 0.082982 -0.027901
vn 0.048327 0.082982 -0.027901
vn 0.048327 0.082982 -0.027901
vn 0.048327 0.082982 0.027901
vn 0.048327 0.082982 0.027901
vn 0.048327 0.082982 0.027901
vn 0.000000 0.082982 0.055803
vn 0.000000 0.082982 0.055803
vn 0.000000 0.082982 0.055803
vn -0.048327 0.082982 0.027901
vn -0.048327 0.082982 0.027901
vn -0.048327 0.082982 0.027901
vn 0.000000 -0.100000 0.000000
vn 0.000000 -0.100000 0.000000
vn 0.000000 -0.100000 0.000000
vn 0.000000 -0.100000 0.000000
vn 0.000000 -0.100000 0.000000
vn 0.000000 -0.100000 0.000000
vn 0.000000 -0.100000 0.000000
vn 0.000000 -0.100000 0.000000
vn 0.000000 -0.100000 0.000000
vn 0.000000 -0.100000 0.000000
vn 0.000000 -0.100000 0.000000
vn 0.000000 -0.100000 0.000000
vn 0.069805 0.059186 -0.040302
vn 0.069805 0.059186 -0.040302
vn 0.069805 0.059186 -0.040302
vn 0.082692 0.051683 -0.022157
vn 0.082692 0.051683 -0.022157
vn 0.082692 0.051683 -0.022157
vn 0.082692 0.051683 0.022157
vn 0.082692 0.051683 0.022157
vn 0.082692 0.051683 0.022157
vn 0.069805 0.059186 0.040302
vn 0.069805 0.059186 0.040302
vn 0.069805 0.059186 0.040302
vn 0.060535 0.051683 0.060535
vn 0.060535 0.051683 0.060535
vn 0.060535 0.051683 0.060535
vn 0.022157 0.051683 0.082692
vn 0.022157 0.051683 0.082692
vn 0.022157 0.051683 0.082692
vn 0.000000 0.059186 0.080604
vn 0.000000 0.059186 0.080604
vn 0.000000 0.059186 0.080604
vn -0.022157 0.051683 0.082692
vn -0.022157 0.051683 0.082692
vn -0.022157 0.051683 0.082692
vn -0.060535 0.051683 0.060535
vn -0.060535 0.051683 0.060535
vn -0.060535 0.051683 0.060535
vn -0.069805 0.059186 0.040302
vn -0.069805 0.059186 0.040302
vn -0.069805 0.059186 0.040302
vn -0.082692 0.051683 0.022157
vn -0.082692 0.051683 0.022157
vn -0.082692 0.051683 0.022157
vn -0.082692 0.051683 -0.022157
vn -0.082692 0.051683 -0.022157
vn -0.082692 0.051683 -0.022157
vn -0.069805 0.059186 -0.040302
vn -0.069805 0.059186 -0.040302
vn -0.069805 0.059186 -0.040302
vn -0.060535 0.051683 -0.060535
vn -0.060535 0.051683 -0.060535
vn -0.060535 0.051683 -0.060535
vn -0.022157 0.051683 -0.082692
vn -0.022157 0.051683 -0.082692
vn -0.022157 0.051683 -0.082692
vn 0.000000 0.059186 -0.080604
vn 0.000000 0.059186 -0.080604
vn 0.000000 0.059186 -0.080604
vn 0.022157 0.051683 -0.082692
vn 0.022157 0.051683 -0.082692
vn 0.022157 0.051683 -0.082692
vn 0.060535 0.051683 -0.060535
vn 0.060535 0.051683 -0.060535
vn 0.060535 0.051683 -0.060535
usemtl 191,191,191
f 7/1/1 4/2/2 11/3/3
f 12/4/4 7/5/5 11/6/6
f 16/7/7 12/8/8 11/9/9
f 13/10/10 16/11/11 11/12/12
f 8/13/13 13/14/14 11/15/15
f 4/16/16 8/17/17 11/18/18
f 19/20/20 18/21/21 17/19/19
f 17/19/19 18/21/21 14/30/30
f 14/30/30 18/21/21 15/22/22
f 14/30/30 15/22/22 9/29/29
f 9/29/29 15/22/22 10/23/23
f 9/29/29 10/23/23 5/28/28
f 5/28/28 10/23/23 6/24/24
f 5/28/28 6/24/24 2/27/27
f 2/27/27 6/24/24 3/25/25
f 2/27/27 3/25/25 1/26/26
f 16/31/31 17/32/32 12/33/33
f 19/34/34 17/35/35 16/36/36
f 18/37/37 19/38/38 16/39/39
f 13/40/40 18/41/41 16/42/42
f 15/43/43 18/44/44 13/45/45
f 10/46/46 15/47/47 13/48/48
f 8/49/49 10/50/50 13/51/51
f 6/52/52 10/53/53 8/54/54
f 3/55/55 6/56/56 8/57/57
f 4/58/58 3/59/59 8/60/60
f 1/61/61 3/62/62 4/63/63
f 2/64/64 1/65/65 4/66/66
f 7/67/67 2/68/68 4/69/69
f 5/70/70 2/71/71 7/72/72
f 9/73/73 5/74/74 7/75/75
f 12/76/76 9/77/77 7/78/78
f 14/79/79 9/80/80 12/81/81
f 17/82/82 14/83/83 12/84/84

# 19 vertices
# 84 texture params
# 84 normals
# 34 facets

# 1 groups
