{
    "asset" : {
        "generator" : "Khronos glTF Blender I/O v1.6.16",
        "version" : "2.0"
    },
    "scene" : 0,
    "scenes" : [
        {
            "name" : "Scene",
            "nodes" : [
                1
            ]
        }
    ],
    "nodes" : [
        {
            "mesh" : 0,
            "name" : "group_1.002",
            "translation" : [
                -5157.3671875,
                117.91339874267578,
                -2742.9921875
            ]
        },
        {
            "children" : [
                0
            ],
            "name" : "SketchUp",
            "scale" : [
                0.00025399975129403174,
                0.00025399975129403174,
                0.00025399975129403174
            ]
        }
    ],
    "materials" : [
        {
            "doubleSided" : true,
            "name" : "Grass",
            "pbrMetallicRoughness" : {
                "metallicFactor" : 0,
                "roughnessFactor" : 0.5
            }
        },
        {
            "doubleSided" : true,
            "name" : "Water",
            "pbrMetallicRoughness" : {
                "baseColorFactor" : [
                    0.800000011920929,
                    1,
                    1,
                    1
                ],
                "metallicFactor" : 0,
                "roughnessFactor" : 0.5
            }
        },
        {
            "doubleSided" : true,
            "name" : "Frame",
            "pbrMetallicRoughness" : {
                "baseColorFactor" : [
                    0.5568627119064331,
                    0.5568627119064331,
                    0.5568627119064331,
                    1
                ],
                "metallicFactor" : 0,
                "roughnessFactor" : 0.5
            }
        },
        {
            "doubleSided" : true,
            "name" : "Castle",
            "pbrMetallicRoughness" : {
                "baseColorFactor" : [
                    1,
                    0.8980392217636108,
                    0.6000000238418579,
                    1
                ],
                "metallicFactor" : 0,
                "roughnessFactor" : 0.5
            }
        }
    ],
    "meshes" : [
        {
            "name" : "ID166",
            "primitives" : [
                {
                    "attributes" : {
                        "POSITION" : 0,
                        "NORMAL" : 1
                    },
                    "indices" : 2,
                    "material" : 0
                },
                {
                    "attributes" : {
                        "POSITION" : 3,
                        "NORMAL" : 4
                    },
                    "indices" : 5,
                    "material" : 1
                },
                {
                    "attributes" : {
                        "POSITION" : 6,
                        "NORMAL" : 7
                    },
                    "indices" : 8,
                    "material" : 2
                },
                {
                    "attributes" : {
                        "POSITION" : 9,
                        "NORMAL" : 10
                    },
                    "indices" : 11,
                    "material" : 3
                }
            ]
        }
    ],
    "accessors" : [
        {
            "bufferView" : 0,
            "componentType" : 5126,
            "count" : 11802,
            "max" : [
                5062.498046875,
                1271.6531982421875,
                2625.000244140625
            ],
            "min" : [
                -18062.50390625,
                -118.11031341552734,
                -20500.001953125
            ],
            "type" : "VEC3"
        },
        {
            "bufferView" : 1,
            "componentType" : 5126,
            "count" : 11802,
            "type" : "VEC3"
        },
        {
            "bufferView" : 2,
            "componentType" : 5123,
            "count" : 26643,
            "type" : "SCALAR"
        },
        {
            "bufferView" : 3,
            "componentType" : 5126,
            "count" : 685,
            "max" : [
                5062.498046875,
                78.74011993408203,
                2625.000244140625
            ],
            "min" : [
                -18062.50390625,
                -2.297149658203125,
                -20500.001953125
            ],
            "type" : "VEC3"
        },
        {
            "bufferView" : 4,
            "componentType" : 5126,
            "count" : 685,
            "type" : "VEC3"
        },
        {
            "bufferView" : 5,
            "componentType" : 5123,
            "count" : 1875,
            "type" : "SCALAR"
        },
        {
            "bufferView" : 6,
            "componentType" : 5126,
            "count" : 977,
            "max" : [
                5180.60546875,
                1271.6531982421875,
                2743.1103515625
            ],
            "min" : [
                -18180.61328125,
                -118.11031341552734,
                -20618.109375
            ],
            "type" : "VEC3"
        },
        {
            "bufferView" : 7,
            "componentType" : 5126,
            "count" : 977,
            "type" : "VEC3"
        },
        {
            "bufferView" : 8,
            "componentType" : 5123,
            "count" : 2217,
            "type" : "SCALAR"
        },
        {
            "bufferView" : 9,
            "componentType" : 5126,
            "count" : 9739,
            "max" : [
                -5267.4423828125,
                708.661376953125,
                -7312.498046875
            ],
            "min" : [
                -8125.0029296875,
                -6.103515625e-05,
                -8778.6923828125
            ],
            "type" : "VEC3"
        },
        {
            "bufferView" : 10,
            "componentType" : 5126,
            "count" : 9739,
            "type" : "VEC3"
        },
        {
            "bufferView" : 11,
            "componentType" : 5123,
            "count" : 19605,
            "type" : "SCALAR"
        }
    ],
    "bufferViews" : [
        {
            "buffer" : 0,
            "byteLength" : 141624,
            "byteOffset" : 0
        },
        {
            "buffer" : 0,
            "byteLength" : 141624,
            "byteOffset" : 141624
        },
        {
            "buffer" : 0,
            "byteLength" : 53286,
            "byteOffset" : 283248
        },
        {
            "buffer" : 0,
            "byteLength" : 8220,
            "byteOffset" : 336536
        },
        {
            "buffer" : 0,
            "byteLength" : 8220,
            "byteOffset" : 344756
        },
        {
            "buffer" : 0,
            "byteLength" : 3750,
            "byteOffset" : 352976
        },
        {
            "buffer" : 0,
            "byteLength" : 11724,
            "byteOffset" : 356728
        },
        {
            "buffer" : 0,
            "byteLength" : 11724,
            "byteOffset" : 368452
        },
        {
            "buffer" : 0,
            "byteLength" : 4434,
            "byteOffset" : 380176
        },
        {
            "buffer" : 0,
            "byteLength" : 116868,
            "byteOffset" : 384612
        },
        {
            "buffer" : 0,
            "byteLength" : 116868,
            "byteOffset" : 501480
        },
        {
            "buffer" : 0,
            "byteLength" : 39210,
            "byteOffset" : 618348
        }
    ],
    "buffers" : [
        {
            "byteLength" : 657560,
            "uri" : "data:application/octet-stream;base64,"
        }
    ]
}
