{
    "asset" : {
        "generator" : "Khronos glTF Blender I/O v1.6.16",
        "version" : "2.0"
    },
    "extensionsUsed" : [
        "KHR_materials_clearcoat"
    ],
    "scene" : 0,
    "scenes" : [
        {
            "name" : "Scene",
            "nodes" : [
                0,
                1,
                2,
                3,
                4,
                5,
                6,
                8,
                10,
                11,
                15,
                16
            ]
        }
    ],
    "nodes" : [
        {
            "mesh" : 0,
            "name" : "Card",
            "rotation" : [
                0,
                0.7071068286895752,
                0,
                0.7071068286895752
            ],
            "translation" : [
                -0.24718952178955078,
                0.05919411778450012,
                -0.559811532497406
            ]
        },
        {
            "mesh" : 1,
            "name" : "EdgeIslands",
            "translation" : [
                -9.6875,
                0,
                9.787501335144043
            ]
        },
        {
            "mesh" : 2,
            "name" : "Sea",
            "scale" : [
                11.300000190734863,
                11.300000190734863,
                11.300000190734863
            ],
            "translation" : [
                0,
                -0.008075525052845478,
                0
            ]
        },
        {
            "mesh" : 3,
            "name" : "EdgeIslands.001",
            "translation" : [
                -9.6875,
                0,
                9.787501335144043
            ]
        },
        {
            "mesh" : 4,
            "name" : "Sand",
            "translation" : [
                -9.6875,
                0,
                9.787501335144043
            ]
        },
        {
            "name" : "Light",
            "rotation" : [
                0.17249301075935364,
                0.9125585556030273,
                -0.3587087094783783,
                0.09386738389730453
            ],
            "translation" : [
                -0.4677462577819824,
                2.093536376953125,
                -0.3308439254760742
            ]
        },
        {
            "name" : "Camera",
            "rotation" : [
                0.23849844932556152,
                0.744030773639679,
                -0.5244705677032471,
                0.3383302092552185
            ],
            "translation" : [
                29.09070587158203,
                13.261780738830566,
                -24.979333877563477
            ]
        },
        {
            "name" : "group_0.016",
            "translation" : [
                2.625000238418579,
                0,
                -17.284500122070312
            ]
        },
        {
            "children" : [
                7
            ],
            "name" : "Pirate Island",
            "translation" : [
                -11.5,
                0,
                11.600000381469727
            ]
        },
        {
            "name" : "group_0.017",
            "translation" : [
                18.0625,
                0,
                -2.66172194480896
            ]
        },
        {
            "children" : [
                9
            ],
            "name" : "Flat Island",
            "translation" : [
                -11.5,
                0,
                11.600000381469727
            ]
        },
        {
            "mesh" : 5,
            "name" : "Frame",
            "translation" : [
                -11.5,
                0,
                11.5
            ]
        },
        {
            "mesh" : 6,
            "name" : "Castle",
            "translation" : [
                9.9375,
                0,
                -9.9375
            ]
        },
        {
            "mesh" : 7,
            "name" : "group_0.044",
            "translation" : [
                9.9375,
                0,
                -9.9375
            ]
        },
        {
            "mesh" : 8,
            "name" : "group_1.004",
            "translation" : [
                9.9375,
                0,
                -9.947240829467773
            ]
        },
        {
            "children" : [
                12,
                13,
                14
            ],
            "name" : "Treasure Island",
            "translation" : [
                -11.5,
                0,
                11.600000381469727
            ]
        },
        {
            "mesh" : 9,
            "name" : "Needle",
            "translation" : [
                -8.934795379638672,
                0.06707625091075897,
                -9.95426082611084
            ]
        }
    ],
    "materials" : [
        {
            "doubleSided" : true,
            "name" : "Material",
            "pbrMetallicRoughness" : {
                "baseColorTexture" : {
                    "index" : 0
                },
                "metallicFactor" : 0
            }
        },
        {
            "doubleSided" : true,
            "name" : "Grass",
            "pbrMetallicRoughness" : {
                "baseColorFactor" : [
                    0.25251156091690063,
                    1,
                    0.07802754640579224,
                    1
                ],
                "metallicFactor" : 0
            }
        },
        {
            "doubleSided" : true,
            "extensions" : {
                "KHR_materials_clearcoat" : {
                    "clearcoatFactor" : 0.20000000298023224,
                    "clearcoatRoughnessFactor" : 0.09090909361839294
                }
            },
            "name" : "Material.001",
            "pbrMetallicRoughness" : {
                "metallicFactor" : 0
            }
        },
        {
            "doubleSided" : true,
            "name" : "Stone",
            "pbrMetallicRoughness" : {
                "baseColorFactor" : [
                    0.8000000715255737,
                    0.5089259743690491,
                    0.16427907347679138,
                    1
                ],
                "metallicFactor" : 0,
                "roughnessFactor" : 0.5
            }
        },
        {
            "doubleSided" : true,
            "name" : "Castle sand",
            "pbrMetallicRoughness" : {
                "baseColorFactor" : [
                    1,
                    0.5812671780586243,
                    0.031131986528635025,
                    1
                ],
                "metallicFactor" : 0
            }
        },
        {
            "doubleSided" : true,
            "name" : "Color_M04",
            "pbrMetallicRoughness" : {
                "baseColorFactor" : [
                    0.02038547955453396,
                    0.02038547955453396,
                    0.02038547955453396,
                    1
                ],
                "metallicFactor" : 0
            }
        },
        {
            "doubleSided" : true,
            "name" : "Castle",
            "pbrMetallicRoughness" : {
                "metallicFactor" : 0
            }
        },
        {
            "doubleSided" : true,
            "name" : "Tile",
            "pbrMetallicRoughness" : {
                "baseColorFactor" : [
                    0.02380148321390152,
                    0.02380148321390152,
                    0.02380148321390152,
                    1
                ],
                "metallicFactor" : 0,
                "roughnessFactor" : 0.5
            }
        }
    ],
    "meshes" : [
        {
            "name" : "Plane",
            "primitives" : [
                {
                    "attributes" : {
                        "POSITION" : 0,
                        "NORMAL" : 1,
                        "TEXCOORD_0" : 2
                    },
                    "indices" : 3,
                    "material" : 0
                }
            ]
        },
        {
            "name" : "ID5",
            "primitives" : [
                {
                    "attributes" : {
                        "POSITION" : 4,
                        "NORMAL" : 5,
                        "TEXCOORD_0" : 6
                    },
                    "indices" : 7,
                    "material" : 1
                }
            ]
        },
        {
            "name" : "Plane.002",
            "primitives" : [
                {
                    "attributes" : {
                        "POSITION" : 8,
                        "NORMAL" : 9,
                        "TEXCOORD_0" : 10
                    },
                    "indices" : 11,
                    "material" : 2
                }
            ]
        },
        {
            "name" : "ID5.002",
            "primitives" : [
                {
                    "attributes" : {
                        "POSITION" : 12,
                        "NORMAL" : 13,
                        "TEXCOORD_0" : 14
                    },
                    "indices" : 15,
                    "material" : 3
                }
            ]
        },
        {
            "name" : "ID5.005",
            "primitives" : [
                {
                    "attributes" : {
                        "POSITION" : 16,
                        "NORMAL" : 17,
                        "TEXCOORD_0" : 18
                    },
                    "indices" : 19,
                    "material" : 4
                }
            ]
        },
        {
            "name" : "ID4.001",
            "primitives" : [
                {
                    "attributes" : {
                        "POSITION" : 20,
                        "NORMAL" : 21
                    },
                    "indices" : 22,
                    "material" : 5
                }
            ]
        },
        {
            "name" : "ID18.002",
            "primitives" : [
                {
                    "attributes" : {
                        "POSITION" : 23,
                        "NORMAL" : 24,
                        "TEXCOORD_0" : 25
                    },
                    "indices" : 26,
                    "material" : 6
                }
            ]
        },
        {
            "name" : "ID92",
            "primitives" : [
                {
                    "attributes" : {
                        "POSITION" : 27,
                        "NORMAL" : 28,
                        "TEXCOORD_0" : 29
                    },
                    "indices" : 30,
                    "material" : 7
                }
            ]
        },
        {
            "name" : "ID369",
            "primitives" : [
                {
                    "attributes" : {
                        "POSITION" : 31,
                        "NORMAL" : 32,
                        "TEXCOORD_0" : 33
                    },
                    "indices" : 34,
                    "material" : 4
                }
            ]
        },
        {
            "name" : "Cube.001",
            "primitives" : [
                {
                    "attributes" : {
                        "POSITION" : 35,
                        "NORMAL" : 36,
                        "TEXCOORD_0" : 37
                    },
                    "indices" : 38,
                    "material" : 3
                }
            ]
        }
    ],
    "textures" : [
        {
            "sampler" : 0,
            "source" : 0
        }
    ],
    "images" : [
        {
            "bufferView" : 4,
            "mimeType" : "image/png",
            "name" : "Chance Reverse"
        }
    ],
    "accessors" : [
        {
            "bufferView" : 0,
            "componentType" : 5126,
            "count" : 96,
            "max" : [
                0.6666666865348816,
                0,
                1
            ],
            "min" : [
                -0.6666666865348816,
                -0.02181551232933998,
                -1
            ],
            "type" : "VEC3"
        },
        {
            "bufferView" : 1,
            "componentType" : 5126,
            "count" : 96,
            "type" : "VEC3"
        },
        {
            "bufferView" : 2,
            "componentType" : 5126,
            "count" : 96,
            "type" : "VEC2"
        },
        {
            "bufferView" : 3,
            "componentType" : 5123,
            "count" : 180,
            "type" : "SCALAR"
        },
        {
            "bufferView" : 5,
            "componentType" : 5126,
            "count" : 15616,
            "max" : [
                21.313005447387695,
                1.1929130554199219,
                1.71383798122406
            ],
            "min" : [
                -1.814109206199646,
                -0.008790572173893452,
                -21.413434982299805
            ],
            "type" : "VEC3"
        },
        {
            "bufferView" : 6,
            "componentType" : 5126,
            "count" : 15616,
            "type" : "VEC3"
        },
        {
            "bufferView" : 7,
            "componentType" : 5126,
            "count" : 15616,
            "type" : "VEC2"
        },
        {
            "bufferView" : 8,
            "componentType" : 5123,
            "count" : 15636,
            "type" : "SCALAR"
        },
        {
            "bufferView" : 9,
            "componentType" : 5126,
            "count" : 4,
            "max" : [
                1.0287611484527588,
                0,
                1.017699122428894
            ],
            "min" : [
                -1.017699122428894,
                0,
                -1.0287611484527588
            ],
            "type" : "VEC3"
        },
        {
            "bufferView" : 10,
            "componentType" : 5126,
            "count" : 4,
            "type" : "VEC3"
        },
        {
            "bufferView" : 11,
            "componentType" : 5126,
            "count" : 4,
            "type" : "VEC2"
        },
        {
            "bufferView" : 12,
            "componentType" : 5123,
            "count" : 6,
            "type" : "SCALAR"
        },
        {
            "bufferView" : 13,
            "componentType" : 5126,
            "count" : 1441,
            "max" : [
                1.0212879180908203,
                0.2957572042942047,
                -19.663482666015625
            ],
            "min" : [
                0.6004090309143066,
                -1.1265599078975278e-16,
                -19.935279846191406
            ],
            "type" : "VEC3"
        },
        {
            "bufferView" : 14,
            "componentType" : 5126,
            "count" : 1441,
            "type" : "VEC3"
        },
        {
            "bufferView" : 15,
            "componentType" : 5126,
            "count" : 1441,
            "type" : "VEC2"
        },
        {
            "bufferView" : 16,
            "componentType" : 5123,
            "count" : 1629,
            "type" : "SCALAR"
        },
        {
            "bufferView" : 17,
            "componentType" : 5126,
            "count" : 1940,
            "max" : [
                11.375,
                0.11811020225286484,
                -8.13474178314209
            ],
            "min" : [
                8.125,
                3.4475099255359964e-06,
                -11.329458236694336
            ],
            "type" : "VEC3"
        },
        {
            "bufferView" : 18,
            "componentType" : 5126,
            "count" : 1940,
            "type" : "VEC3"
        },
        {
            "bufferView" : 19,
            "componentType" : 5126,
            "count" : 1940,
            "type" : "VEC2"
        },
        {
            "bufferView" : 20,
            "componentType" : 5123,
            "count" : 2442,
            "type" : "SCALAR"
        },
        {
            "bufferView" : 21,
            "componentType" : 5126,
            "count" : 2153,
            "max" : [
                23.24310874938965,
                1.1929130554199219,
                0.11811020225286484
            ],
            "min" : [
                -0.11811020225286484,
                -0.19685040414333344,
                -23.24310874938965
            ],
            "type" : "VEC3"
        },
        {
            "bufferView" : 22,
            "componentType" : 5126,
            "count" : 2153,
            "type" : "VEC3"
        },
        {
            "bufferView" : 23,
            "componentType" : 5123,
            "count" : 3786,
            "type" : "SCALAR"
        },
        {
            "bufferView" : 24,
            "componentType" : 5126,
            "count" : 19269,
            "max" : [
                2.8575611114501953,
                0.6299213171005249,
                0
            ],
            "min" : [
                0,
                0,
                -1.4661940336227417
            ],
            "type" : "VEC3"
        },
        {
            "bufferView" : 25,
            "componentType" : 5126,
            "count" : 19269,
            "type" : "VEC3"
        },
        {
            "bufferView" : 26,
            "componentType" : 5126,
            "count" : 19269,
            "type" : "VEC2"
        },
        {
            "bufferView" : 27,
            "componentType" : 5123,
            "count" : 20811,
            "type" : "SCALAR"
        },
        {
            "bufferView" : 28,
            "componentType" : 5126,
            "count" : 39,
            "max" : [
                0.4842478930950165,
                0.4006783962249756,
                -0.8543307185173035
            ],
            "min" : [
                0.39370080828666687,
                0.3149605989456177,
                -1.0354219675064087
            ],
            "type" : "VEC3"
        },
        {
            "bufferView" : 29,
            "componentType" : 5126,
            "count" : 39,
            "type" : "VEC3"
        },
        {
            "bufferView" : 30,
            "componentType" : 5126,
            "count" : 39,
            "type" : "VEC2"
        },
        {
            "bufferView" : 31,
            "componentType" : 5123,
            "count" : 39,
            "type" : "SCALAR"
        },
        {
            "bufferView" : 32,
            "componentType" : 5126,
            "count" : 277,
            "max" : [
                0.10713350027799606,
                0.019685039296746254,
                -0.2893061935901642
            ],
            "min" : [
                0.016290679574012756,
                1.1102230246251565e-16,
                -0.4720740020275116
            ],
            "type" : "VEC3"
        },
        {
            "bufferView" : 33,
            "componentType" : 5126,
            "count" : 277,
            "type" : "VEC3"
        },
        {
            "bufferView" : 34,
            "componentType" : 5126,
            "count" : 277,
            "type" : "VEC2"
        },
        {
            "bufferView" : 35,
            "componentType" : 5123,
            "count" : 294,
            "type" : "SCALAR"
        },
        {
            "bufferView" : 36,
            "componentType" : 5126,
            "count" : 416,
            "max" : [
                0.03769461810588837,
                0.06094048172235489,
                0.05604178458452225
            ],
            "min" : [
                -0.03367861732840538,
                -0.07686923444271088,
                -0.054827846586704254
            ],
            "type" : "VEC3"
        },
        {
            "bufferView" : 37,
            "componentType" : 5126,
            "count" : 416,
            "type" : "VEC3"
        },
        {
            "bufferView" : 38,
            "componentType" : 5126,
            "count" : 416,
            "type" : "VEC2"
        },
        {
            "bufferView" : 39,
            "componentType" : 5123,
            "count" : 624,
            "type" : "SCALAR"
        }
    ],
    "bufferViews" : [
        {
            "buffer" : 0,
            "byteLength" : 1152,
            "byteOffset" : 0
        },
        {
            "buffer" : 0,
            "byteLength" : 1152,
            "byteOffset" : 1152
        },
        {
            "buffer" : 0,
            "byteLength" : 768,
            "byteOffset" : 2304
        },
        {
            "buffer" : 0,
            "byteLength" : 360,
            "byteOffset" : 3072
        },
        {
            "buffer" : 0,
            "byteLength" : 107381,
            "byteOffset" : 3432
        },
        {
            "buffer" : 0,
            "byteLength" : 187392,
            "byteOffset" : 110816
        },
        {
            "buffer" : 0,
            "byteLength" : 187392,
            "byteOffset" : 298208
        },
        {
            "buffer" : 0,
            "byteLength" : 124928,
            "byteOffset" : 485600
        },
        {
            "buffer" : 0,
            "byteLength" : 31272,
            "byteOffset" : 610528
        },
        {
            "buffer" : 0,
            "byteLength" : 48,
            "byteOffset" : 641800
        },
        {
            "buffer" : 0,
            "byteLength" : 48,
            "byteOffset" : 641848
        },
        {
            "buffer" : 0,
            "byteLength" : 32,
            "byteOffset" : 641896
        },
        {
            "buffer" : 0,
            "byteLength" : 12,
            "byteOffset" : 641928
        },
        {
            "buffer" : 0,
            "byteLength" : 17292,
            "byteOffset" : 641940
        },
        {
            "buffer" : 0,
            "byteLength" : 17292,
            "byteOffset" : 659232
        },
        {
            "buffer" : 0,
            "byteLength" : 11528,
            "byteOffset" : 676524
        },
        {
            "buffer" : 0,
            "byteLength" : 3258,
            "byteOffset" : 688052
        },
        {
            "buffer" : 0,
            "byteLength" : 23280,
            "byteOffset" : 691312
        },
        {
            "buffer" : 0,
            "byteLength" : 23280,
            "byteOffset" : 714592
        },
        {
            "buffer" : 0,
            "byteLength" : 15520,
            "byteOffset" : 737872
        },
        {
            "buffer" : 0,
            "byteLength" : 4884,
            "byteOffset" : 753392
        },
        {
            "buffer" : 0,
            "byteLength" : 25836,
            "byteOffset" : 758276
        },
        {
            "buffer" : 0,
            "byteLength" : 25836,
            "byteOffset" : 784112
        },
        {
            "buffer" : 0,
            "byteLength" : 7572,
            "byteOffset" : 809948
        },
        {
            "buffer" : 0,
            "byteLength" : 231228,
            "byteOffset" : 817520
        },
        {
            "buffer" : 0,
            "byteLength" : 231228,
            "byteOffset" : 1048748
        },
        {
            "buffer" : 0,
            "byteLength" : 154152,
            "byteOffset" : 1279976
        },
        {
            "buffer" : 0,
            "byteLength" : 41622,
            "byteOffset" : 1434128
        },
        {
            "buffer" : 0,
            "byteLength" : 468,
            "byteOffset" : 1475752
        },
        {
            "buffer" : 0,
            "byteLength" : 468,
            "byteOffset" : 1476220
        },
        {
            "buffer" : 0,
            "byteLength" : 312,
            "byteOffset" : 1476688
        },
        {
            "buffer" : 0,
            "byteLength" : 78,
            "byteOffset" : 1477000
        },
        {
            "buffer" : 0,
            "byteLength" : 3324,
            "byteOffset" : 1477080
        },
        {
            "buffer" : 0,
            "byteLength" : 3324,
            "byteOffset" : 1480404
        },
        {
            "buffer" : 0,
            "byteLength" : 2216,
            "byteOffset" : 1483728
        },
        {
            "buffer" : 0,
            "byteLength" : 588,
            "byteOffset" : 1485944
        },
        {
            "buffer" : 0,
            "byteLength" : 4992,
            "byteOffset" : 1486532
        },
        {
            "buffer" : 0,
            "byteLength" : 4992,
            "byteOffset" : 1491524
        },
        {
            "buffer" : 0,
            "byteLength" : 3328,
            "byteOffset" : 1496516
        },
        {
            "buffer" : 0,
            "byteLength" : 1248,
            "byteOffset" : 1499844
        }
    ],
    "samplers" : [
        {
            "magFilter" : 9729,
            "minFilter" : 9987
        }
    ],
    "buffers" : [
        {
            "byteLength" : 1501092,
            "uri" : "data:application/octet-stream;base64,"
        }
    ]
}
