{
    "asset" : {
        "generator" : "Khronos glTF Blender I/O v1.6.16",
        "version" : "2.0"
    },
    "scene" : 0,
    "scenes" : [
        {
            "name" : "Scene",
            "nodes" : [
                4
            ]
        }
    ],
    "nodes" : [
        {
            "mesh" : 0,
            "name" : "Barrel",
            "scale" : [
                3.9523513317108154,
                3.9523513317108154,
                3.9523513317108154
            ],
            "translation" : [
                0,
                1.8136636018753052,
                4.3902716636657715
            ]
        },
        {
            "mesh" : 1,
            "name" : "RotateCCW",
            "rotation" : [
                0,
                0.7071068286895752,
                0,
                0.7071067094802856
            ],
            "scale" : [
                25.426633834838867,
                25.426633834838867,
                25.426633834838867
            ],
            "translation" : [
                0,
                7.282461643218994,
                -1.9510363340377808
            ]
        },
        {
            "mesh" : 2,
            "name" : "RotateCW",
            "rotation" : [
                0,
                0.7071068286895752,
                0,
                0.7071067094802856
            ],
            "scale" : [
                25.426633834838867,
                25.426633834838867,
                25.426633834838867
            ],
            "translation" : [
                0,
                7.282461643218994,
                -1.9510363340377808
            ]
        },
        {
            "mesh" : 3,
            "name" : "Ruby",
            "rotation" : [
                0,
                0,
                0.3826834559440613,
                0.9238795638084412
            ],
            "scale" : [
                6.485632419586182,
                6.485632419586182,
                6.485633373260498
            ],
            "translation" : [
                -1.0377099514007568,
                7.06709098815918,
                -6.329685688018799
            ]
        },
        {
            "children" : [
                0,
                1,
                2,
                3
            ],
            "mesh" : 4,
            "name" : "Boat",
            "scale" : [
                0.030640244483947754,
                0.030640244483947754,
                0.030640244483947754
            ]
        }
    ],
    "materials" : [
        {
            "doubleSided" : true,
            "name" : "Material.004",
            "pbrMetallicRoughness" : {
                "baseColorFactor" : [
                    0.41093674302101135,
                    0.21721014380455017,
                    0.04582865908741951,
                    1
                ],
                "metallicFactor" : 0,
                "roughnessFactor" : 0.5
            }
        },
        {
            "doubleSided" : true,
            "name" : "Metal",
            "pbrMetallicRoughness" : {
                "baseColorFactor" : [
                    0.22658266127109528,
                    0.19881823658943176,
                    0.1696375459432602,
                    1
                ],
                "metallicFactor" : 0
            }
        },
        {
            "doubleSided" : true,
            "name" : "Material.005",
            "pbrMetallicRoughness" : {
                "baseColorTexture" : {
                    "index" : 0
                },
                "metallicFactor" : 0,
                "roughnessFactor" : 0.5
            }
        },
        {
            "doubleSided" : true,
            "name" : "Material.003",
            "pbrMetallicRoughness" : {
                "baseColorFactor" : [
                    0.22025607526302338,
                    0.01728401705622673,
                    0.02675844170153141,
                    1
                ],
                "metallicFactor" : 0,
                "roughnessFactor" : 0
            }
        },
        {
            "doubleSided" : true,
            "name" : "Default OBJ",
            "pbrMetallicRoughness" : {
                "baseColorFactor" : [
                    0.800000011920929,
                    0.800000011920929,
                    0.800000011920929,
                    1
                ],
                "metallicFactor" : 0,
                "roughnessFactor" : 0.5
            }
        }
    ],
    "meshes" : [
        {
            "name" : "Circle.001",
            "primitives" : [
                {
                    "attributes" : {
                        "POSITION" : 0,
                        "NORMAL" : 1,
                        "TEXCOORD_0" : 2
                    },
                    "indices" : 3,
                    "material" : 0
                },
                {
                    "attributes" : {
                        "POSITION" : 4,
                        "NORMAL" : 5,
                        "TEXCOORD_0" : 6
                    },
                    "indices" : 7,
                    "material" : 1
                }
            ]
        },
        {
            "name" : "Plane.001",
            "primitives" : [
                {
                    "attributes" : {
                        "POSITION" : 8,
                        "NORMAL" : 9,
                        "TEXCOORD_0" : 10
                    },
                    "indices" : 11,
                    "material" : 2
                }
            ]
        },
        {
            "name" : "Plane.004",
            "primitives" : [
                {
                    "attributes" : {
                        "POSITION" : 12,
                        "NORMAL" : 13,
                        "TEXCOORD_0" : 14
                    },
                    "indices" : 15,
                    "material" : 2
                }
            ]
        },
        {
            "name" : "Circle",
            "primitives" : [
                {
                    "attributes" : {
                        "POSITION" : 16,
                        "NORMAL" : 17,
                        "TEXCOORD_0" : 18
                    },
                    "indices" : 19,
                    "material" : 3
                }
            ]
        },
        {
            "name" : "Boat",
            "primitives" : [
                {
                    "attributes" : {
                        "POSITION" : 20,
                        "NORMAL" : 21,
                        "TEXCOORD_0" : 22
                    },
                    "indices" : 23,
                    "material" : 4
                }
            ]
        }
    ],
    "textures" : [
        {
            "sampler" : 0,
            "source" : 0
        }
    ],
    "images" : [
        {
            "bufferView" : 12,
            "mimeType" : "image/png",
            "name" : "arrows"
        }
    ],
    "accessors" : [
        {
            "bufferView" : 0,
            "componentType" : 5126,
            "count" : 124,
            "max" : [
                1.239913821220398,
                2.7254655361175537,
                1.227111577987671
            ],
            "min" : [
                -1.239913821220398,
                -0.20552277565002441,
                -1.239913821220398
            ],
            "type" : "VEC3"
        },
        {
            "bufferView" : 1,
            "componentType" : 5126,
            "count" : 124,
            "type" : "VEC3"
        },
        {
            "bufferView" : 2,
            "componentType" : 5126,
            "count" : 124,
            "type" : "VEC2"
        },
        {
            "bufferView" : 3,
            "componentType" : 5123,
            "count" : 192,
            "type" : "SCALAR"
        },
        {
            "bufferView" : 4,
            "componentType" : 5126,
            "count" : 140,
            "max" : [
                1.2769739627838135,
                1.8062331676483154,
                1.2845760583877563
            ],
            "min" : [
                -1.2814271450042725,
                0.6502102613449097,
                -1.2738251686096191
            ],
            "type" : "VEC3"
        },
        {
            "bufferView" : 5,
            "componentType" : 5126,
            "count" : 140,
            "type" : "VEC3"
        },
        {
            "bufferView" : 6,
            "componentType" : 5126,
            "count" : 140,
            "type" : "VEC2"
        },
        {
            "bufferView" : 7,
            "componentType" : 5123,
            "count" : 288,
            "type" : "SCALAR"
        },
        {
            "bufferView" : 8,
            "componentType" : 5126,
            "count" : 8,
            "max" : [
                1,
                0,
                -0.3466026186943054
            ],
            "min" : [
                -1,
                0,
                -1.2941392660140991
            ],
            "type" : "VEC3"
        },
        {
            "bufferView" : 9,
            "componentType" : 5126,
            "count" : 8,
            "type" : "VEC3"
        },
        {
            "bufferView" : 10,
            "componentType" : 5126,
            "count" : 8,
            "type" : "VEC2"
        },
        {
            "bufferView" : 11,
            "componentType" : 5123,
            "count" : 12,
            "type" : "SCALAR"
        },
        {
            "bufferView" : 13,
            "componentType" : 5126,
            "count" : 6,
            "max" : [
                1,
                0,
                1.2973363399505615
            ],
            "min" : [
                -1,
                0,
                0.3551352024078369
            ],
            "type" : "VEC3"
        },
        {
            "bufferView" : 14,
            "componentType" : 5126,
            "count" : 6,
            "type" : "VEC3"
        },
        {
            "bufferView" : 15,
            "componentType" : 5126,
            "count" : 6,
            "type" : "VEC2"
        },
        {
            "bufferView" : 16,
            "componentType" : 5123,
            "count" : 12,
            "type" : "SCALAR"
        },
        {
            "bufferView" : 17,
            "componentType" : 5126,
            "count" : 120,
            "max" : [
                0.8347660899162292,
                0.4115425944328308,
                0.80901700258255
            ],
            "min" : [
                -0.8347660899162292,
                -1.0845016241073608,
                -0.7788024544715881
            ],
            "type" : "VEC3"
        },
        {
            "bufferView" : 18,
            "componentType" : 5126,
            "count" : 120,
            "type" : "VEC3"
        },
        {
            "bufferView" : 19,
            "componentType" : 5126,
            "count" : 120,
            "type" : "VEC2"
        },
        {
            "bufferView" : 20,
            "componentType" : 5123,
            "count" : 180,
            "type" : "SCALAR"
        },
        {
            "bufferView" : 21,
            "componentType" : 5126,
            "count" : 2166,
            "max" : [
                6.642419815063477,
                12.13000202178955,
                17.28343963623047
            ],
            "min" : [
                -6.642416954040527,
                -9.999999974752427e-07,
                -14.451253890991211
            ],
            "type" : "VEC3"
        },
        {
            "bufferView" : 22,
            "componentType" : 5126,
            "count" : 2166,
            "type" : "VEC3"
        },
        {
            "bufferView" : 23,
            "componentType" : 5126,
            "count" : 2166,
            "type" : "VEC2"
        },
        {
            "bufferView" : 24,
            "componentType" : 5123,
            "count" : 5550,
            "type" : "SCALAR"
        }
    ],
    "bufferViews" : [
        {
            "buffer" : 0,
            "byteLength" : 1488,
            "byteOffset" : 0
        },
        {
            "buffer" : 0,
            "byteLength" : 1488,
            "byteOffset" : 1488
        },
        {
            "buffer" : 0,
            "byteLength" : 992,
            "byteOffset" : 2976
        },
        {
            "buffer" : 0,
            "byteLength" : 384,
            "byteOffset" : 3968
        },
        {
            "buffer" : 0,
            "byteLength" : 1680,
            "byteOffset" : 4352
        },
        {
            "buffer" : 0,
            "byteLength" : 1680,
            "byteOffset" : 6032
        },
        {
            "buffer" : 0,
            "byteLength" : 1120,
            "byteOffset" : 7712
        },
        {
            "buffer" : 0,
            "byteLength" : 576,
            "byteOffset" : 8832
        },
        {
            "buffer" : 0,
            "byteLength" : 96,
            "byteOffset" : 9408
        },
        {
            "buffer" : 0,
            "byteLength" : 96,
            "byteOffset" : 9504
        },
        {
            "buffer" : 0,
            "byteLength" : 64,
            "byteOffset" : 9600
        },
        {
            "buffer" : 0,
            "byteLength" : 24,
            "byteOffset" : 9664
        },
        {
            "buffer" : 0,
            "byteLength" : 2987,
            "byteOffset" : 9688
        },
        {
            "buffer" : 0,
            "byteLength" : 72,
            "byteOffset" : 12676
        },
        {
            "buffer" : 0,
            "byteLength" : 72,
            "byteOffset" : 12748
        },
        {
            "buffer" : 0,
            "byteLength" : 48,
            "byteOffset" : 12820
        },
        {
            "buffer" : 0,
            "byteLength" : 24,
            "byteOffset" : 12868
        },
        {
            "buffer" : 0,
            "byteLength" : 1440,
            "byteOffset" : 12892
        },
        {
            "buffer" : 0,
            "byteLength" : 1440,
            "byteOffset" : 14332
        },
        {
            "buffer" : 0,
            "byteLength" : 960,
            "byteOffset" : 15772
        },
        {
            "buffer" : 0,
            "byteLength" : 360,
            "byteOffset" : 16732
        },
        {
            "buffer" : 0,
            "byteLength" : 25992,
            "byteOffset" : 17092
        },
        {
            "buffer" : 0,
            "byteLength" : 25992,
            "byteOffset" : 43084
        },
        {
            "buffer" : 0,
            "byteLength" : 17328,
            "byteOffset" : 69076
        },
        {
            "buffer" : 0,
            "byteLength" : 11100,
            "byteOffset" : 86404
        }
    ],
    "samplers" : [
        {
            "magFilter" : 9729,
            "minFilter" : 9987
        }
    ],
    "buffers" : [
        {
            "byteLength" : 97504,
            "uri" : "data:application/octet-stream;base64,"
        }
    ]
}
