{
    "asset" : {
        "generator" : "Khronos glTF Blender I/O v1.6.16",
        "version" : "2.0"
    },
    "scene" : 0,
    "scenes" : [
        {
            "name" : "Scene",
            "nodes" : [
                0
            ]
        }
    ],
    "nodes" : [
        {
            "mesh" : 0,
            "name" : "Boat",
            "scale" : [
                0.030640244483947754,
                0.030640244483947754,
                0.030640244483947754
            ]
        }
    ],
    "materials" : [
        {
            "doubleSided" : true,
            "name" : "Default OBJ",
            "pbrMetallicRoughness" : {
                "baseColorFactor" : [
                    0.800000011920929,
                    0.800000011920929,
                    0.800000011920929,
                    1
                ],
                "metallicFactor" : 0,
                "roughnessFactor" : 0.5
            }
        }
    ],
    "meshes" : [
        {
            "name" : "Boat",
            "primitives" : [
                {
                    "attributes" : {
                        "POSITION" : 0,
                        "NORMAL" : 1,
                        "TEXCOORD_0" : 2
                    },
                    "indices" : 3,
                    "material" : 0
                }
            ]
        }
    ],
    "accessors" : [
        {
            "bufferView" : 0,
            "componentType" : 5126,
            "count" : 4639,
            "max" : [
                6.6500020027160645,
                12.13000202178955,
                17.286882400512695
            ],
            "min" : [
                -6.649999141693115,
                -9.999999974752427e-07,
                -14.451253890991211
            ],
            "type" : "VEC3"
        },
        {
            "bufferView" : 1,
            "componentType" : 5126,
            "count" : 4639,
            "type" : "VEC3"
        },
        {
            "bufferView" : 2,
            "componentType" : 5126,
            "count" : 4639,
            "type" : "VEC2"
        },
        {
            "bufferView" : 3,
            "componentType" : 5123,
            "count" : 18858,
            "type" : "SCALAR"
        }
    ],
    "bufferViews" : [
        {
            "buffer" : 0,
            "byteLength" : 55668,
            "byteOffset" : 0
        },
        {
            "buffer" : 0,
            "byteLength" : 55668,
            "byteOffset" : 55668
        },
        {
            "buffer" : 0,
            "byteLength" : 37112,
            "byteOffset" : 111336
        },
        {
            "buffer" : 0,
            "byteLength" : 37716,
            "byteOffset" : 148448
        }
    ],
    "buffers" : [
        {
            "byteLength" : 186164,
            "uri" : "data:application/octet-stream;base64,"
        }
    ]
}
